<svg xmlns="http://www.w3.org/2000/svg" viewBox="0 0 64 64">
  <defs>
    <linearGradient id="heartGradient" x1="0" y1="0" x2="1" y2="1">
      <stop offset="0%" stop-color="#ff8ab3" />
      <stop offset="100%" stop-color="#ff3d81" />
    </linearGradient>
  </defs>
  <rect width="64" height="64" rx="16" fill="#1a132b" />
  <path
    d="M32 52C31.6 52 31.2 51.9 30.8 51.6C15.3 40.9 8 33.8 8 23.8C8 15.8 14.3 10 22 10C26.3 10 30.3 12 32.9 15.2C35.5 12 39.5 10 43.8 10C51.5 10 57.8 15.8 57.8 23.8C57.8 33.8 50.5 40.9 35 51.6C34.8 51.8 34.4 52 34 52H32Z"
    fill="url(#heartGradient)"
  />
  <circle cx="24" cy="20" r="2" fill="#ffd6e5" opacity="0.8" />
</svg>
